<mxfile host="app.diagrams.net" modified="2021-06-16T04:04:43.904Z" agent="5.0 (Windows NT 10.0; Win64; x64) AppleWebKit/537.36 (KHTML, like Gecko) Chrome/91.0.4472.101 Safari/537.36" etag="cveSHoVdIK_ZkbC9Bhc9" version="14.6.13" type="github">
  <diagram id="5tzeV-4GufvZzPYu1Mo6" name="Page-1">
    <mxGraphModel dx="1422" dy="762" grid="0" gridSize="10" guides="1" tooltips="1" connect="1" arrows="1" fold="1" page="1" pageScale="1" pageWidth="850" pageHeight="1100" math="0" shadow="0">
      <root>
        <mxCell id="0" />
        <mxCell id="1" parent="0" />
        <mxCell id="2QVM9ioMyrSugW2EcRQR-1" value="Event 1&lt;br&gt;------------------------------------------&lt;br&gt;Item Availability Check in Store" style="rounded=1;whiteSpace=wrap;html=1;" parent="1" vertex="1">
          <mxGeometry x="280" y="245" width="185" height="130" as="geometry" />
        </mxCell>
        <mxCell id="2QVM9ioMyrSugW2EcRQR-2" value="Customer/&lt;br&gt;Sales Agent" style="rounded=0;whiteSpace=wrap;html=1;" parent="1" vertex="1">
          <mxGeometry x="10" y="250" width="120" height="120" as="geometry" />
        </mxCell>
        <mxCell id="2QVM9ioMyrSugW2EcRQR-9" value="" style="endArrow=classic;html=1;" parent="1" edge="1">
          <mxGeometry relative="1" as="geometry">
            <mxPoint x="80" y="250" as="sourcePoint" />
            <mxPoint x="320" y="246" as="targetPoint" />
            <Array as="points">
              <mxPoint x="80" y="170" />
              <mxPoint x="140" y="170" />
              <mxPoint x="190" y="170" />
              <mxPoint x="220" y="170" />
              <mxPoint x="320" y="170" />
            </Array>
          </mxGeometry>
        </mxCell>
        <mxCell id="2QVM9ioMyrSugW2EcRQR-10" value="ItemID, item" style="edgeLabel;resizable=0;html=1;align=center;verticalAlign=middle;" parent="2QVM9ioMyrSugW2EcRQR-9" connectable="0" vertex="1">
          <mxGeometry relative="1" as="geometry">
            <mxPoint x="2" as="offset" />
          </mxGeometry>
        </mxCell>
        <mxCell id="2QVM9ioMyrSugW2EcRQR-13" value="" style="endArrow=classic;html=1;exitX=-0.011;exitY=0.346;exitDx=0;exitDy=0;exitPerimeter=0;entryX=1.017;entryY=0.333;entryDx=0;entryDy=0;entryPerimeter=0;" parent="1" source="2QVM9ioMyrSugW2EcRQR-1" target="2QVM9ioMyrSugW2EcRQR-2" edge="1">
          <mxGeometry relative="1" as="geometry">
            <mxPoint x="300" y="280" as="sourcePoint" />
            <mxPoint x="161" y="290" as="targetPoint" />
          </mxGeometry>
        </mxCell>
        <mxCell id="2QVM9ioMyrSugW2EcRQR-14" value="Item out of stock" style="edgeLabel;resizable=0;html=1;align=center;verticalAlign=middle;" parent="2QVM9ioMyrSugW2EcRQR-13" connectable="0" vertex="1">
          <mxGeometry relative="1" as="geometry" />
        </mxCell>
        <mxCell id="2QVM9ioMyrSugW2EcRQR-15" value="" style="endArrow=classic;html=1;exitX=0;exitY=0.4;exitDx=0;exitDy=0;exitPerimeter=0;entryX=0.643;entryY=0.008;entryDx=0;entryDy=0;entryPerimeter=0;" parent="1" target="2QVM9ioMyrSugW2EcRQR-1" edge="1">
          <mxGeometry relative="1" as="geometry">
            <mxPoint x="570" y="152" as="sourcePoint" />
            <mxPoint x="400" y="240" as="targetPoint" />
            <Array as="points">
              <mxPoint x="460" y="150" />
              <mxPoint x="400" y="150" />
            </Array>
          </mxGeometry>
        </mxCell>
        <mxCell id="2QVM9ioMyrSugW2EcRQR-16" value="ItemID, Cost, Description" style="edgeLabel;resizable=0;html=1;align=center;verticalAlign=middle;" parent="2QVM9ioMyrSugW2EcRQR-15" connectable="0" vertex="1">
          <mxGeometry relative="1" as="geometry">
            <mxPoint x="55" as="offset" />
          </mxGeometry>
        </mxCell>
        <mxCell id="2QVM9ioMyrSugW2EcRQR-17" value="" style="endArrow=classic;html=1;exitX=1.017;exitY=0.575;exitDx=0;exitDy=0;exitPerimeter=0;" parent="1" source="2QVM9ioMyrSugW2EcRQR-2" edge="1">
          <mxGeometry relative="1" as="geometry">
            <mxPoint x="340" y="450" as="sourcePoint" />
            <mxPoint x="280" y="318" as="targetPoint" />
            <Array as="points" />
          </mxGeometry>
        </mxCell>
        <mxCell id="2QVM9ioMyrSugW2EcRQR-18" value="Item search" style="edgeLabel;resizable=0;html=1;align=center;verticalAlign=middle;" parent="2QVM9ioMyrSugW2EcRQR-17" connectable="0" vertex="1">
          <mxGeometry relative="1" as="geometry" />
        </mxCell>
        <mxCell id="2QVM9ioMyrSugW2EcRQR-20" value="" style="endArrow=classic;html=1;entryX=1;entryY=0.75;entryDx=0;entryDy=0;" parent="1" target="2QVM9ioMyrSugW2EcRQR-2" edge="1">
          <mxGeometry relative="1" as="geometry">
            <mxPoint x="280" y="340" as="sourcePoint" />
            <mxPoint x="250" y="450" as="targetPoint" />
            <Array as="points">
              <mxPoint x="250" y="340" />
            </Array>
          </mxGeometry>
        </mxCell>
        <mxCell id="2QVM9ioMyrSugW2EcRQR-21" value="Search results" style="edgeLabel;resizable=0;html=1;align=center;verticalAlign=middle;" parent="2QVM9ioMyrSugW2EcRQR-20" connectable="0" vertex="1">
          <mxGeometry relative="1" as="geometry">
            <mxPoint as="offset" />
          </mxGeometry>
        </mxCell>
        <mxCell id="2QVM9ioMyrSugW2EcRQR-23" value="" style="endArrow=classic;html=1;exitX=0.75;exitY=1;exitDx=0;exitDy=0;" parent="1" source="2QVM9ioMyrSugW2EcRQR-1" edge="1">
          <mxGeometry relative="1" as="geometry">
            <mxPoint x="340" y="450" as="sourcePoint" />
            <mxPoint x="600" y="428" as="targetPoint" />
            <Array as="points">
              <mxPoint x="419" y="400" />
              <mxPoint x="419" y="430" />
            </Array>
          </mxGeometry>
        </mxCell>
        <mxCell id="2QVM9ioMyrSugW2EcRQR-25" value="" style="endArrow=classic;html=1;exitX=0.544;exitY=-0.012;exitDx=0;exitDy=0;exitPerimeter=0;" parent="1" edge="1">
          <mxGeometry relative="1" as="geometry">
            <mxPoint x="667.9200000000001" y="369.03999999999996" as="sourcePoint" />
            <mxPoint x="465" y="309.5" as="targetPoint" />
            <Array as="points">
              <mxPoint x="667" y="310" />
            </Array>
          </mxGeometry>
        </mxCell>
        <mxCell id="2QVM9ioMyrSugW2EcRQR-26" value="Item quantity availability" style="edgeLabel;resizable=0;html=1;align=center;verticalAlign=middle;" parent="2QVM9ioMyrSugW2EcRQR-25" connectable="0" vertex="1">
          <mxGeometry relative="1" as="geometry">
            <mxPoint x="-37" as="offset" />
          </mxGeometry>
        </mxCell>
        <mxCell id="2QVM9ioMyrSugW2EcRQR-31" value="" style="endArrow=classic;html=1;exitX=0.25;exitY=1;exitDx=0;exitDy=0;entryX=0;entryY=0.75;entryDx=0;entryDy=0;" parent="1" source="2QVM9ioMyrSugW2EcRQR-1" edge="1">
          <mxGeometry relative="1" as="geometry">
            <mxPoint x="350" y="430" as="sourcePoint" />
            <mxPoint x="580" y="600" as="targetPoint" />
            <Array as="points">
              <mxPoint x="326" y="600" />
            </Array>
          </mxGeometry>
        </mxCell>
        <mxCell id="2QVM9ioMyrSugW2EcRQR-32" value="Item(s) requested&amp;nbsp;" style="edgeLabel;resizable=0;html=1;align=center;verticalAlign=middle;" parent="2QVM9ioMyrSugW2EcRQR-31" connectable="0" vertex="1">
          <mxGeometry relative="1" as="geometry">
            <mxPoint x="124" as="offset" />
          </mxGeometry>
        </mxCell>
        <mxCell id="2QVM9ioMyrSugW2EcRQR-33" value="" style="endArrow=classic;html=1;exitX=0;exitY=0.25;exitDx=0;exitDy=0;" parent="1" target="2QVM9ioMyrSugW2EcRQR-1" edge="1">
          <mxGeometry relative="1" as="geometry">
            <mxPoint x="580" y="560" as="sourcePoint" />
            <mxPoint x="380" y="380" as="targetPoint" />
            <Array as="points">
              <mxPoint x="374" y="560" />
            </Array>
          </mxGeometry>
        </mxCell>
        <mxCell id="2QVM9ioMyrSugW2EcRQR-34" value="ItemID, cost, description, quantity" style="edgeLabel;resizable=0;html=1;align=center;verticalAlign=middle;" parent="2QVM9ioMyrSugW2EcRQR-33" connectable="0" vertex="1">
          <mxGeometry relative="1" as="geometry">
            <mxPoint x="90" as="offset" />
          </mxGeometry>
        </mxCell>
        <mxCell id="2QVM9ioMyrSugW2EcRQR-43" value="ItemID, cost, description, quantity" style="edgeLabel;resizable=0;html=1;align=center;verticalAlign=middle;" parent="1" connectable="0" vertex="1">
          <mxGeometry x="570" y="310" as="geometry" />
        </mxCell>
        <mxCell id="KQzi2ZIOoUPdGsTq77Im-4" value="Item(s) requested&amp;nbsp;" style="edgeLabel;resizable=0;html=1;align=center;verticalAlign=middle;" parent="1" connectable="0" vertex="1">
          <mxGeometry x="489.9998611111539" y="430" as="geometry" />
        </mxCell>
        <mxCell id="KQzi2ZIOoUPdGsTq77Im-5" value="&lt;span style=&quot;text-align: center&quot;&gt;&amp;nbsp; &amp;nbsp; &amp;nbsp; &amp;nbsp; &amp;nbsp; &amp;nbsp;Item Details&lt;/span&gt;" style="html=1;dashed=0;whitespace=wrap;shape=mxgraph.dfd.dataStoreID;align=left;spacingLeft=3;points=[[0,0],[0.5,0],[1,0],[0,0.5],[1,0.5],[0,1],[0.5,1],[1,1]];" parent="1" vertex="1">
          <mxGeometry x="570" y="120" width="150" height="70" as="geometry" />
        </mxCell>
        <mxCell id="KQzi2ZIOoUPdGsTq77Im-6" value="&lt;span style=&quot;text-align: center&quot;&gt;&amp;nbsp; &amp;nbsp; &amp;nbsp; &amp;nbsp; &amp;nbsp; &amp;nbsp;Store&lt;/span&gt;&lt;br style=&quot;text-align: center&quot;&gt;&lt;span style=&quot;text-align: center&quot;&gt;&amp;nbsp; &amp;nbsp; &amp;nbsp; &amp;nbsp; &amp;nbsp; &amp;nbsp;Inventory Level&lt;/span&gt;" style="html=1;dashed=0;whitespace=wrap;shape=mxgraph.dfd.dataStoreID;align=left;spacingLeft=3;points=[[0,0],[0.5,0],[1,0],[0,0.5],[1,0.5],[0,1],[0.5,1],[1,1]];" parent="1" vertex="1">
          <mxGeometry x="600" y="370" width="150" height="70" as="geometry" />
        </mxCell>
        <mxCell id="KQzi2ZIOoUPdGsTq77Im-7" value="&lt;span style=&quot;text-align: center&quot;&gt;&amp;nbsp; &amp;nbsp; &amp;nbsp; &amp;nbsp; &amp;nbsp; &amp;nbsp;Warehouse&lt;/span&gt;&lt;br style=&quot;text-align: center&quot;&gt;&lt;span style=&quot;text-align: center&quot;&gt;&amp;nbsp; &amp;nbsp; &amp;nbsp; &amp;nbsp; &amp;nbsp; &amp;nbsp;Inventory Level&lt;/span&gt;" style="html=1;dashed=0;whitespace=wrap;shape=mxgraph.dfd.dataStoreID;align=left;spacingLeft=3;points=[[0,0],[0.5,0],[1,0],[0,0.5],[1,0.5],[0,1],[0.5,1],[1,1]];" parent="1" vertex="1">
          <mxGeometry x="580" y="550" width="150" height="70" as="geometry" />
        </mxCell>
      </root>
    </mxGraphModel>
  </diagram>
</mxfile>
